<?xml version="1.0" encoding="UTF-8"?>
<!--Generator: Apple Native CoreSVG 326-->
<!DOCTYPE svg
PUBLIC "-//W3C//DTD SVG 1.1//EN"
       "http://www.w3.org/Graphics/SVG/1.1/DTD/svg11.dtd">
<svg version="1.1" xmlns="http://www.w3.org/2000/svg" xmlns:xlink="http://www.w3.org/1999/xlink" viewBox="0 0 174.5 233.875">
 <g>
  <rect height="233.875" opacity="0" width="174.5" x="0" y="0"/>
  <path d="M0 124.375C0 172.5 39 211.625 87.25 211.625C135.5 211.625 174.5 172.5 174.5 124.375C174.5 118.75 170.625 114.875 165.125 114.875C159.875 114.875 156.5 118.75 156.5 124.25C156.5 162.5 125.5 193.375 87.25 193.375C49 193.375 18 162.5 18 124.25C18 86 49 55 87.25 55C93.75 55 99.625 55.25 104.875 56.375L78.375 82.375C76.625 84 75.875 86.375 75.875 88.625C75.875 93.75 79.75 97.625 84.625 97.625C87.5 97.625 89.5 96.625 91.125 95.125L130.625 55.625C132.375 53.875 133.25 51.75 133.25 49.125C133.25 46.75 132.25 44.375 130.625 42.75L91.125 2.75C89.625 1 87.375 0 84.625 0C79.75 0 75.875 4.125 75.875 9.25C75.875 11.625 76.75 13.875 78.25 15.625L101.25 38.375C96.75 37.5 92 37.125 87.25 37.125C39 37.125 0 76.125 0 124.375Z" fill="#ff453a"/>
 </g>
</svg>
