<?xml version="1.0" encoding="UTF-8"?>
<!--Generator: Apple Native CoreSVG 326-->
<!DOCTYPE svg
PUBLIC "-//W3C//DTD SVG 1.1//EN"
       "http://www.w3.org/Graphics/SVG/1.1/DTD/svg11.dtd">
<svg version="1.1" xmlns="http://www.w3.org/2000/svg" xmlns:xlink="http://www.w3.org/1999/xlink" viewBox="0 0 174.375 107.875">
 <g>
  <rect height="107.875" opacity="0" width="174.375" x="0" y="0"/>
  <path d="M87.25 107.875C90 107.875 92.75 106.875 94.625 104.75L171.375 27.5C173.25 25.625 174.375 23.125 174.375 20.25C174.375 14.375 170 9.875 164.125 9.875C161.375 9.875 158.625 11.125 156.75 12.875L81.375 88.5L93 88.5L17.625 12.875C15.75 11.125 13.25 9.875 10.375 9.875C4.5 9.875 0 14.375 0 20.25C0 23.125 1.125 25.625 3 27.5L79.875 104.75C81.875 106.875 84.375 107.875 87.25 107.875Z" fill="white" fill-opacity="0.85"/>
 </g>
</svg>
