<?xml version="1.0" encoding="UTF-8"?>
<!--Generator: Apple Native CoreSVG 326-->
<!DOCTYPE svg
PUBLIC "-//W3C//DTD SVG 1.1//EN"
       "http://www.w3.org/Graphics/SVG/1.1/DTD/svg11.dtd">
<svg version="1.1" xmlns="http://www.w3.org/2000/svg" xmlns:xlink="http://www.w3.org/1999/xlink" viewBox="0 0 174.375 107.125">
 <g>
  <rect height="107.125" opacity="0" width="174.375" x="0" y="0"/>
  <path d="M3 80.375C1.125 82.125 0 84.75 0 87.625C0 93.5 4.5 98 10.375 98C13.25 98 15.875 96.875 17.625 95L93 19.25L81.375 19.25L156.75 95C158.5 96.875 161.375 98 164.125 98C170 98 174.375 93.5 174.375 87.625C174.375 84.75 173.25 82.125 171.375 80.375L94.625 3.125C92.75 1 90 0 87.25 0C84.375 0 81.75 1 79.875 3.125Z" fill="white" fill-opacity="0.85"/>
 </g>
</svg>
