<?xml version="1.0" encoding="UTF-8"?>
<!--Generator: Apple Native CoreSVG 326-->
<!DOCTYPE svg
PUBLIC "-//W3C//DTD SVG 1.1//EN"
       "http://www.w3.org/Graphics/SVG/1.1/DTD/svg11.dtd">
<svg version="1.1" xmlns="http://www.w3.org/2000/svg" xmlns:xlink="http://www.w3.org/1999/xlink" viewBox="0 0 188 38.875">
 <g>
  <rect height="38.875" opacity="0" width="188" x="0" y="0"/>
  <path d="M168.625 38.75C179.375 38.75 188 30.125 188 19.375C188 8.625 179.375 0 168.625 0C158 0 149.25 8.625 149.25 19.375C149.25 30.125 158 38.75 168.625 38.75Z" fill="white" fill-opacity="0.85"/>
  <path d="M94 38.75C104.75 38.75 113.375 30.125 113.375 19.375C113.375 8.625 104.75 0 94 0C83.25 0 74.625 8.625 74.625 19.375C74.625 30.125 83.25 38.75 94 38.75Z" fill="white" fill-opacity="0.85"/>
  <path d="M19.375 38.75C30.125 38.75 38.75 30.125 38.75 19.375C38.75 8.625 30.125 0 19.375 0C8.625 0 0 8.625 0 19.375C0 30.125 8.625 38.75 19.375 38.75Z" fill="white" fill-opacity="0.85"/>
 </g>
</svg>
