<?xml version="1.0" encoding="UTF-8"?>
<!--Generator: Apple Native CoreSVG 326-->
<!DOCTYPE svg
PUBLIC "-//W3C//DTD SVG 1.1//EN"
       "http://www.w3.org/Graphics/SVG/1.1/DTD/svg11.dtd">
<svg version="1.1" xmlns="http://www.w3.org/2000/svg" xmlns:xlink="http://www.w3.org/1999/xlink" viewBox="0 0 201.875 201.875">
 <g>
  <rect height="201.875" opacity="0" width="201.875" x="0" y="0"/>
  <path d="M100.875 195.375C128.875 195.375 151 154.25 151 101.125C151 47.625 129 6.375 100.875 6.375C72.75 6.375 50.875 47.625 50.875 101.125C50.875 154.25 72.875 195.375 100.875 195.375ZM100.875 20C119.5 20 136.25 58 136.25 101.125C136.25 143.75 119.5 181.75 100.875 181.75C82.375 181.75 65.625 143.75 65.625 101.125C65.625 58 82.375 20 100.875 20ZM93.625 7.75L93.625 193.5L108.125 193.5L108.125 7.75ZM100.875 136.25C70.5 136.25 43.25 144.375 29.625 157.5L40.75 166.625C53.5 156.375 74.5 150.75 100.875 150.75C127.375 150.75 148.25 156.375 161.125 166.625L172.25 157.5C158.5 144.375 131.375 136.25 100.875 136.25ZM190.875 93.625L10.875 93.625L10.875 108.125L190.875 108.125ZM100.875 66C131.375 66 158.5 57.875 172.25 44.75L161.125 35.625C148.25 45.875 127.375 51.5 100.875 51.5C74.5 51.5 53.5 45.875 40.75 35.625L29.625 44.75C43.25 57.875 70.5 66 100.875 66ZM100.875 201.75C156.625 201.75 201.875 156.625 201.875 100.875C201.875 45.125 156.625 0 100.875 0C45.25 0 0 45.125 0 100.875C0 156.625 45.25 201.75 100.875 201.75ZM100.875 186.75C53.5 186.75 15.125 148.25 15.125 100.875C15.125 53.5 53.5 15 100.875 15C148.25 15 186.75 53.5 186.75 100.875C186.75 148.25 148.25 186.75 100.875 186.75Z" fill="white" fill-opacity="0.85"/>
 </g>
</svg>
