<svg width="17" height="13" viewBox="0 0 17 13" fill="none" xmlns="http://www.w3.org/2000/svg">
<path d="M1.99316 9.92138H2.24707C2.04394 9.29931 1.93603 8.62646 1.93603 7.89648C1.93603 4.39892 4.41796 2.04394 8.00439 2.04394H10.8989C11.5146 2.04394 12.105 2.10742 12.6572 2.24707V1.96777C12.6572 0.660156 11.9907 0 10.6641 0H1.99316C0.660156 0 0 0.660156 0 1.96777V7.95361C0 9.26757 0.660156 9.92138 1.99316 9.92138ZM8.00439 12.8794H10.8989C14.0156 12.8794 16.0976 10.9116 16.0976 7.89648C16.0976 4.88769 14.0156 2.90722 10.8989 2.90722H8.00439C4.88134 2.90722 2.80566 4.88769 2.80566 7.89648C2.80566 10.9116 4.88134 12.8794 8.00439 12.8794ZM4.48144 10.6894C4.27832 10.499 3.95459 10.1372 3.95459 9.63573C3.95459 9.26757 4.24658 8.89941 4.83691 8.89941H10.645C11.2798 8.89941 11.6352 8.56298 11.6352 7.90282V5.33203C11.6352 4.65918 11.5464 4.15136 11.1338 3.89746C10.9751 3.80224 11.0386 3.59277 11.2734 3.6372C12.1875 3.81494 12.6572 4.37353 12.6572 5.50976V7.94091C12.6572 9.29931 11.9907 9.92138 10.645 9.92138H5.19873C4.76074 9.92138 4.58935 10.1816 4.729 10.5688C4.79882 10.7656 4.63378 10.8291 4.48144 10.6894Z" fill="white"/>
</svg>
