<?xml version="1.0" encoding="UTF-8"?>
<!--Generator: Apple Native CoreSVG 326-->
<!DOCTYPE svg
PUBLIC "-//W3C//DTD SVG 1.1//EN"
       "http://www.w3.org/Graphics/SVG/1.1/DTD/svg11.dtd">
<svg version="1.1" xmlns="http://www.w3.org/2000/svg" xmlns:xlink="http://www.w3.org/1999/xlink" viewBox="0 0 231.875 182.375">
 <g>
  <rect height="182.375" opacity="0" width="231.875" x="0" y="0"/>
  <path d="M220.25 143.875L162.875 89.625C158.625 85.75 153.375 83.75 148.375 83.75C143.125 83.75 138.25 85.625 133.75 89.5L89.75 128.875L71.75 112.75C67.625 109.125 63.125 107.25 58.5 107.25C54.375 107.25 50 109 46 112.625L8.5 146.25C8.625 164.75 16.5 174.625 31.5 174.625L192.375 174.625C210.625 174.625 220.25 164.5 220.25 143.875ZM31.875 182.375L200 182.375C221.375 182.375 231.875 171.875 231.875 150.875L231.875 31.625C231.875 10.625 221.375 0.125 200 0.125L31.875 0.125C10.625 0.125 0 10.625 0 31.625L0 150.875C0 171.875 10.625 182.375 31.875 182.375ZM32.125 164.25C23.125 164.25 18 159.375 18 150L18 32.5C18 23 23.125 18.25 32.125 18.25L199.75 18.25C208.75 18.25 213.875 23 213.875 32.5L213.875 150C213.875 159.375 208.75 164.25 199.75 164.25Z" fill="white" fill-opacity="0.85"/>
  <path d="M73.5 91.875C86.125 91.875 96.5 81.5 96.5 68.75C96.5 56.125 86.125 45.625 73.5 45.625C60.75 45.625 50.375 56.125 50.375 68.75C50.375 81.5 60.75 91.875 73.5 91.875Z" fill="white" fill-opacity="0.85"/>
 </g>
</svg>
