<?xml version="1.0" encoding="UTF-8"?>
<!--Generator: Apple Native CoreSVG 326-->
<!DOCTYPE svg
PUBLIC "-//W3C//DTD SVG 1.1//EN"
       "http://www.w3.org/Graphics/SVG/1.1/DTD/svg11.dtd">
<svg version="1.1" xmlns="http://www.w3.org/2000/svg" xmlns:xlink="http://www.w3.org/1999/xlink" viewBox="0 0 316.125 229.375">
 <g>
  <rect height="229.375" opacity="0" width="316.125" x="0" y="0"/>
  <path d="M181.375 43.375L181.375 49L178.75 49C173.092 49 167.899 49.6834 163.25 51.0469L163.25 43.875C163.25 26.125 153.125 16.75 136.5 16.75L44.75 16.75C28.25 16.75 18 26.125 18 43.875L18 99C18 116.75 28.25 125.875 44.75 125.875L55.25 125.875C60 125.875 63.875 128.75 63.875 135.125L63.875 160.125L96.375 131C100.625 127.25 103.25 125.875 109.25 125.875L134.875 125.875L134.875 142.75L108.625 142.75L75.25 171.25C68.375 177.25 64.75 180.25 59.25 180.25C51.375 180.25 47.125 174.75 47.125 166.25L47.125 142.75L43.875 142.75C17.75 142.75 0 126.75 0 99.25L0 43.375C0 16 17.75 0 43.875 0L137.375 0C163.5 0 181.375 16 181.375 43.375Z" fill="white" fill-opacity="0.85"/>
  <path d="M102.5 36.125L126.25 99.875C128.5 106.125 125.125 111.75 118.625 111.75C114.375 111.75 111.75 109.5 110.25 104.75L104.75 88.625L76.75 88.625L71.375 104.75C69.75 109.5 67.125 111.75 62.875 111.75C56.5 111.75 53 106.125 55.375 99.875L78.875 36.125C80.875 30.625 85 27.625 90.625 27.625C96.375 27.625 100.5 30.625 102.5 36.125ZM81.25 75.125L100.25 75.125L90.6895 46.9275Z" fill="white" fill-opacity="0.85"/>
  <path d="M316.125 92.375L316.125 148.25C316.125 175.75 298.375 191.75 272.25 191.75L269.125 191.75L269.125 215.25C269.125 223.75 264.75 229.25 257 229.25C251.5 229.25 247.875 226.25 240.875 220.25L207.5 191.75L178.75 191.75C151.375 191.75 134.875 175.75 134.875 148.375L134.875 92.375C134.875 65 151.375 49 178.75 49L272.25 49C298.375 49 316.125 65 316.125 92.375ZM193 97.125C188.5 97.125 185.125 100.25 185.125 104.5C185.125 108.75 188.5 111.875 193 111.875L200.125 111.875C202.875 121.5 207.75 130.5 214.5 138.125C208 142.25 200.25 145.375 191.5 147.5C187.25 148.5 184.625 152.625 185.5 157.125C186.75 161.375 191 163.375 195.625 162.125C206.5 159.75 216.875 155.25 225.875 148.625C234.5 155.125 244.75 159.75 254.75 162.125C260.125 163.25 264.5 161.625 265.625 157.125C267 152.25 264.75 148.5 259.875 147.5C251.25 145.5 243.625 142.375 237 138.125C243.75 130.75 248.625 121.75 251.25 111.875L258.375 111.875C263 111.875 266.375 108.75 266.375 104.5C266.375 100.25 263 97.125 258.375 97.125ZM225.875 128.75C221.5 123.75 218 118.125 215.625 111.875L235.75 111.875C233.5 118 230.125 123.625 225.875 128.75ZM215.625 70.375C211.875 72.125 210.125 76.625 212.125 80.75L216.5 90C218.25 93.875 222.75 95.5 226.625 93.75C230.75 91.75 232.375 87.25 230.5 83.375L226 74.25C223.875 70 219.625 68.125 215.625 70.375Z" fill="white" fill-opacity="0.85"/>
 </g>
</svg>
