<?xml version="1.0" encoding="UTF-8"?>
<!--Generator: Apple Native CoreSVG 326-->
<!DOCTYPE svg
PUBLIC "-//W3C//DTD SVG 1.1//EN"
       "http://www.w3.org/Graphics/SVG/1.1/DTD/svg11.dtd">
<svg version="1.1" xmlns="http://www.w3.org/2000/svg" xmlns:xlink="http://www.w3.org/1999/xlink" viewBox="0 0 175.875 262.875">
 <g>
  <rect height="262.875" opacity="0" width="175.875" x="0" y="0"/>
  <path d="M175.875 110.375L175.875 206.375C175.875 227.375 165.375 237.75 144 237.75L31.875 237.75C10.625 237.75 0 227.375 0 206.375L0 110.375C0 89.375 10.625 79 31.875 79L59.375 79L59.375 97L32.125 97C23.125 97 18 101.875 18 111.375L18 205.375C18 214.875 23.125 219.75 32.125 219.75L143.75 219.75C152.625 219.75 157.875 214.875 157.875 205.375L157.875 111.375C157.875 101.875 152.625 97 143.75 97L116.375 97L116.375 79L144 79C165.375 79 175.875 89.5 175.875 110.375Z" fill="white" fill-opacity="0.85"/>
  <path d="M87.875 160.25C92.75 160.25 96.875 156.375 96.875 151.625L96.875 54.375L96.125 39.375L101.125 44.75L114.875 59.75C116.5 61.625 118.75 62.375 121 62.375C125.625 62.375 129.125 59.125 129.125 54.625C129.125 52.25 128.125 50.375 126.5 48.75L94.375 18.125C92.125 15.75 90.25 15.125 87.875 15.125C85.625 15.125 83.75 15.75 81.375 18.125L49.375 48.75C47.625 50.375 46.75 52.25 46.75 54.625C46.75 59.125 50.125 62.375 54.75 62.375C56.875 62.375 59.375 61.625 60.875 59.75L74.75 44.75L79.75 39.375L79 54.375L79 151.625C79 156.375 83.125 160.25 87.875 160.25Z" fill="white" fill-opacity="0.85"/>
 </g>
</svg>
