<?xml version="1.0" encoding="UTF-8"?>
<!--Generator: Apple Native CoreSVG 326-->
<!DOCTYPE svg
PUBLIC "-//W3C//DTD SVG 1.1//EN"
       "http://www.w3.org/Graphics/SVG/1.1/DTD/svg11.dtd">
<svg version="1.1" xmlns="http://www.w3.org/2000/svg" xmlns:xlink="http://www.w3.org/1999/xlink" viewBox="0 0 14.209 15.2637">
 <g>
  <rect height="15.2637" opacity="0" width="14.209" x="0" y="0"/>
  <path d="M1.01562 15.2637C1.37695 15.2637 1.66992 14.9707 1.66992 14.6094L1.66992 10.4785C1.8457 10.3809 2.56836 10.1172 3.64258 10.1172C6.51367 10.1172 8.33008 11.5137 11.0254 11.5137C12.2559 11.5137 12.6855 11.3867 13.291 11.1133C13.8477 10.8691 14.209 10.4297 14.209 9.6582L14.209 1.78711C14.209 1.34766 13.8184 1.08398 13.3203 1.08398C12.9395 1.08398 12.2363 1.39648 10.9277 1.39648C8.23242 1.39648 6.41602 0 3.54492 0C2.31445 0 1.88477 0.126953 1.2793 0.400391C0.722656 0.644531 0.351562 1.08398 0.351562 1.86523L0.351562 14.6094C0.351562 14.9609 0.654297 15.2637 1.01562 15.2637ZM11.0254 10.1953C8.50586 10.1953 6.65039 8.80859 3.64258 8.80859C2.77344 8.80859 1.99219 8.91602 1.66992 9.0625L1.66992 1.91406C1.76758 1.67969 2.35352 1.31836 3.54492 1.31836C6.24023 1.31836 8.0957 2.71484 10.9277 2.71484C11.7969 2.71484 12.4805 2.60742 12.9004 2.49023L12.9004 9.59961C12.793 9.84375 12.2168 10.1953 11.0254 10.1953Z" fill="white" fill-opacity="0.85"/>
 </g>
</svg>
