<?xml version="1.0" encoding="UTF-8"?>
<!--Generator: Apple Native CoreSVG 232.5-->
<!DOCTYPE svg
PUBLIC "-//W3C//DTD SVG 1.1//EN"
       "http://www.w3.org/Graphics/SVG/1.1/DTD/svg11.dtd">
<svg version="1.1" xmlns="http://www.w3.org/2000/svg" xmlns:xlink="http://www.w3.org/1999/xlink" width="443.75" height="648.75">
 <g>
  <rect height="648.75" opacity="0" width="443.75" x="0" y="0"/>
  <path d="M443.75 261L443.75 510.5C443.75 562 417.5 588 365.25 588L78.5 588C26.25 588 0 562 0 510.5L0 261C0 209.5 26.25 183.5 78.5 183.5L153.75 183.5L153.75 223.75L79 223.75C54 223.75 40.25 237.25 40.25 263.25L40.25 508.25C40.25 534.25 54 547.75 79 547.75L364.5 547.75C389.25 547.75 403.5 534.25 403.5 508.25L403.5 263.25C403.5 237.25 389.25 223.75 364.5 223.75L290 223.75L290 183.5L365.25 183.5C417.5 183.5 443.75 209.5 443.75 261Z" fill="#ffffff" fill-opacity="0.85"/>
  <path d="M221.75 423.5C227 423.5 231.25 422 236.25 417L320.75 335.25C324.5 331.5 326.75 327.5 326.75 322.25C326.75 312 318.75 304.75 308.5 304.75C303.5 304.75 298.5 306.75 295 310.75L257 351L240.25 368.75L241.75 331.25L241.75 67.75C241.75 57.25 232.5 48.25 221.75 48.25C211 48.25 202 57.25 202 67.75L202 331.25L203.5 368.75L186.5 351L148.75 310.75C145.25 306.75 139.75 304.75 135 304.75C124.5 304.75 117 312 117 322.25C117 327.5 119 331.5 122.75 335.25L207.25 417C212.5 422 216.75 423.5 221.75 423.5Z" fill="#ffffff" fill-opacity="0.85"/>
 </g>
</svg>
