<?xml version="1.0" encoding="UTF-8"?>
<!--Generator: Apple Native CoreSVG 326-->
<!DOCTYPE svg
PUBLIC "-//W3C//DTD SVG 1.1//EN"
       "http://www.w3.org/Graphics/SVG/1.1/DTD/svg11.dtd">
<svg version="1.1" xmlns="http://www.w3.org/2000/svg" xmlns:xlink="http://www.w3.org/1999/xlink" viewBox="0 0 10.5176 16.4941">
 <g>
  <rect height="16.4941" opacity="0" width="10.5176" x="0" y="0"/>
  <path d="M0 14.4531C0 15.6445 0.878906 16.4746 2.13867 16.4746L8.00781 16.4746C9.26758 16.4746 10.1562 15.6445 10.1562 14.4531L10.1562 2.02148C10.1562 0.830078 9.26758 0 8.00781 0L2.13867 0C0.878906 0 0 0.830078 0 2.02148ZM1.40625 14.209L1.40625 2.26562C1.40625 1.72852 1.75781 1.40625 2.32422 1.40625L7.82227 1.40625C8.39844 1.40625 8.74023 1.72852 8.74023 2.26562L8.74023 14.209C8.74023 14.7461 8.39844 15.0684 7.82227 15.0684L2.32422 15.0684C1.75781 15.0684 1.40625 14.7461 1.40625 14.209Z" fill="white" fill-opacity="0.85"/>
  <path d="M2.91016 7.4707C2.91016 7.74414 3.10547 7.91992 3.36914 7.91992C3.49609 7.92969 3.60352 7.87109 3.69141 7.7832L4.22852 7.25586L4.64844 6.70898L4.60938 7.80273L4.60938 9.70703C4.60938 9.9707 4.80469 10.166 5.07812 10.166C5.35156 10.166 5.53711 9.9707 5.53711 9.70703L5.53711 7.80273L5.49805 6.70898L5.91797 7.25586L6.46484 7.7832C6.55273 7.87109 6.65039 7.92969 6.78711 7.91992C7.05078 7.91992 7.23633 7.74414 7.23633 7.4707C7.23633 7.35352 7.20703 7.22656 7.12891 7.14844L5.42969 5.46875C5.33203 5.37109 5.19531 5.3125 5.07812 5.3125C4.95117 5.3125 4.82422 5.37109 4.7168 5.46875L3.02734 7.14844C2.93945 7.22656 2.91016 7.35352 2.91016 7.4707ZM3.05664 4.7168L7.08984 4.7168C7.49023 4.7168 7.76367 4.44336 7.76367 4.02344L7.76367 3.07617C7.76367 2.65625 7.49023 2.38281 7.08984 2.38281L3.05664 2.38281C2.65625 2.38281 2.38281 2.65625 2.38281 3.07617L2.38281 4.02344C2.38281 4.44336 2.65625 4.7168 3.05664 4.7168Z" fill="white" fill-opacity="0.85"/>
 </g>
</svg>
