<svg width="16" height="17" viewBox="0 0 16 17" fill="none" xmlns="http://www.w3.org/2000/svg">
<path d="M14.0274 16.5187C14.7523 16.5187 15.3348 15.9362 15.3348 15.2151C15.3348 14.5006 14.7523 13.9182 14.0274 13.9182C13.3101 13.9182 12.7277 14.5006 12.7277 15.2151C12.7277 15.9362 13.3101 16.5187 14.0274 16.5187Z" fill="white"/>
<path d="M9.79398 16.5187C10.5085 16.5187 11.0909 15.9362 11.0909 15.2151C11.0909 14.5006 10.5085 13.9182 9.79398 13.9182C9.07289 13.9182 8.49043 14.5006 8.49043 15.2151C8.49043 15.9362 9.07289 16.5187 9.79398 16.5187Z" fill="white"/>
<path d="M5.5408 16.5187C6.25802 16.5187 6.84048 15.9362 6.84048 15.2151C6.84048 14.5006 6.25802 13.9182 5.5408 13.9182C4.81584 13.9182 4.23727 14.5006 4.23727 15.2151C4.23727 15.9362 4.81584 16.5187 5.5408 16.5187Z" fill="white"/>
<path d="M1.30355 16.5187C2.02465 16.5187 2.60325 15.9362 2.60325 15.2151C2.60325 14.5006 2.02465 13.9182 1.30355 13.9182C0.58246 13.9182 0 14.5006 0 15.2151C0 15.9362 0.58246 16.5187 1.30355 16.5187Z" fill="white"/>
<path d="M4.57456 5.30041H5.64566V3.22289C5.64566 1.91782 6.43004 1.06342 7.66739 1.06342C8.89699 1.06342 9.69959 1.91782 9.69959 3.22289V5.30041H10.7603V3.37054C10.7603 1.3259 9.54826 0 7.66739 0C5.78925 0 4.57456 1.3259 4.57456 3.37054V5.30041ZM4.97827 11.6629H10.3565C11.2562 11.6629 11.7832 11.115 11.7832 10.1537V6.06499C11.7832 5.1169 11.2562 4.56898 10.3565 4.56898H4.97827C4.07473 4.56898 3.55156 5.1169 3.55156 6.06499V10.1537C3.55156 11.115 4.07473 11.6629 4.97827 11.6629Z" fill="white"/>
</svg>
