<?xml version="1.0" encoding="UTF-8"?>
<!--Generator: Apple Native CoreSVG 232.5-->
<!DOCTYPE svg
PUBLIC "-//W3C//DTD SVG 1.1//EN"
       "http://www.w3.org/Graphics/SVG/1.1/DTD/svg11.dtd">
<svg version="1.1" xmlns="http://www.w3.org/2000/svg" xmlns:xlink="http://www.w3.org/1999/xlink" width="542.688" height="588.094">
 <g>
  <rect height="588.094" opacity="0" width="542.688" x="0" y="0"/>
  <path d="M381.248 69.6425L354.726 96.1646C314.093 72.149 268.287 58.1718 222.969 58.1718C114.219 58.1718 48.9689 135.172 48.9689 234.672C48.9689 353.422 139.719 490.672 318.219 516.422C329.719 517.922 335.219 526.172 335.219 534.422C335.219 543.422 327.969 552.922 313.969 551.172C154.469 535.672 13.7189 400.172 13.7189 235.672C13.7189 115.172 94.9689 22.9218 223.969 22.9218C278.179 22.9218 333.212 39.9495 381.248 69.6425ZM529.219 316.172C529.219 404.172 468.719 463.672 382.969 463.672C325.292 463.672 262.293 436.846 213.456 393.37L251.829 376.385C291.015 409.294 338.584 430.172 382.469 430.172C443.719 430.172 494.719 386.922 494.719 315.922C494.719 268.474 477.922 222.762 450.116 183.495L476.201 157.508C509.115 202.931 529.219 257.341 529.219 316.172Z" fill="#ffffff" fill-opacity="0.85"/>
  <path d="M234.219 344.922L458.719 120.672L421.469 83.6718L197.219 307.672L176.469 355.422C174.469 360.672 179.719 366.172 185.219 364.172ZM476.969 102.672L496.969 82.6718C506.469 73.1718 506.969 59.1718 497.219 50.1718L490.719 44.1718C482.219 36.1718 468.719 36.1718 459.719 45.1718L439.969 65.4218Z" fill="#ffffff" fill-opacity="0.85"/>
 </g>
</svg>
