<?xml version="1.0" encoding="UTF-8"?>
<!--Generator: Apple Native CoreSVG 326-->
<!DOCTYPE svg
PUBLIC "-//W3C//DTD SVG 1.1//EN"
       "http://www.w3.org/Graphics/SVG/1.1/DTD/svg11.dtd">
<svg version="1.1" xmlns="http://www.w3.org/2000/svg" xmlns:xlink="http://www.w3.org/1999/xlink" viewBox="0 0 201.875 201.875">
 <g>
  <rect height="201.875" opacity="0" width="201.875" x="0" y="0"/>
  <path d="M100.875 201.75C156.625 201.75 201.875 156.625 201.875 100.875C201.875 45.125 156.625 0 100.875 0C45.25 0 0 45.125 0 100.875C0 156.625 45.25 201.75 100.875 201.75ZM100.875 182.75C55.625 182.75 19.125 146.125 19.125 100.875C19.125 55.625 55.625 19 100.875 19C146.125 19 182.75 55.625 182.75 100.875C182.75 146.125 146.125 182.75 100.875 182.75Z" fill="white" fill-opacity="0.85"/>
  <path d="M98.875 121.375C104.5 121.375 107.875 117.875 107.875 113.5C107.875 113.25 107.875 113 107.875 112.75C107.875 107.5 111.125 104.125 117.75 99.75C127 93.75 134.5 88 134.5 75.625C134.5 58.375 119.125 49.625 102.125 49.625C84.875 49.625 73.5 57.375 70.5 66C69.875 67.75 69.5 69.5 69.5 71.25C69.5 76.125 73.5 78.75 77.125 78.75C80.875 78.75 83.125 77.125 85.25 74.5L87.375 72C91.625 66.75 96 64.625 101.375 64.625C109.625 64.625 115 69.375 115 76.5C115 83.125 110.75 86.125 102.375 91.875C95.625 96.625 89.875 101.875 89.875 111.875C89.875 112 89.875 112.375 89.875 112.5C89.875 118.375 93 121.375 98.875 121.375ZM98.625 151.375C104.625 151.375 110 146.5 110 140.375C110 134.125 104.75 129.375 98.625 129.375C92.375 129.375 87.125 134.25 87.125 140.375C87.125 146.375 92.5 151.375 98.625 151.375Z" fill="white" fill-opacity="0.85"/>
 </g>
</svg>
