<?xml version="1.0" encoding="UTF-8"?>
<!--Generator: Apple Native CoreSVG 326-->
<!DOCTYPE svg
PUBLIC "-//W3C//DTD SVG 1.1//EN"
       "http://www.w3.org/Graphics/SVG/1.1/DTD/svg11.dtd">
<svg version="1.1" xmlns="http://www.w3.org/2000/svg" xmlns:xlink="http://www.w3.org/1999/xlink" viewBox="0 0 199.125 218.688">
 <g>
  <rect height="218.688" opacity="0" width="199.125" x="0" y="0"/>
  <path d="M14.75 172.531L91 216.156C96.875 219.531 102.25 219.531 108 216.156L184.25 172.531C193.75 167.156 199.125 161.781 199.125 146.156L199.125 70.6562C199.125 59.2812 195 52.1562 185.75 46.7812L118.875 8.40625C105.75 0.90625 93.375 0.90625 80.25 8.40625L13.375 46.7812C4 52.1562 0 59.2812 0 70.6562L0 146.156C0 161.781 5.375 167.156 14.75 172.531ZM24.375 157.656C19 154.531 16.875 151.156 16.875 145.656L16.875 74.1562L90.75 116.906L90.75 195.906ZM174.75 157.656L108.375 195.906L108.375 116.906L182.25 74.1562L182.25 145.656C182.25 151.156 180 154.531 174.75 157.656ZM99.5 101.281L26.75 59.6562L54.5 43.5312L127.125 85.4062ZM145.125 75.1562L72 33.5312L87.25 24.7812C95.75 19.9062 103.375 19.7812 111.75 24.7812L172.375 59.6562Z" fill="white" fill-opacity="0.85"/>
 </g>
</svg>
