<?xml version="1.0" encoding="utf-8"?>
<svg xmlns="http://www.w3.org/2000/svg" viewBox="0 0 11.6098 11.6035" width="11.6098px" height="11.6035px">
  <defs>
    <style>.defaults{-sfsymbols-rotates-clockwise:true;}.hierarchical-0:primary{-sfsymbols-motion-group:0;-sfsymbols-layer-tags:apple.photos;}.monochrome-0{-sfsymbols-motion-group:0;-sfsymbols-layer-tags:apple.photos;}.multicolor-0:tintColor{-sfsymbols-motion-group:0;-sfsymbols-layer-tags:apple.photos;}</style>
  </defs>
  <g id="s" transform="matrix(0.00634764926508069, 0, 0, 0.00634764926508069, -0.8886709809303284, 10.441900253295898)">
    <path class="monochrome-0 multicolor-0:tintColor hierarchical-0:primary" d="m435-1015c-177 0-295 115-295 284 0 170 118 284 295 284h231c177 0 294-114 294-284 0-169-117-284-294-284Zm0 115h231c112 0 178 63 178 169 0 107-65 169-178 169h-231c-113 0-179-63-179-169s66-169 179-169Zm382-470c-125-125-289-127-410-7-120 120-117 284 8 409l163 163c126 125 289 127 409 7 121-119 119-284-7-409Zm-82 82 164 163c79 80 81 170 6 246-74 75-165 73-245-7l-163-164c-79-80-82-171-8-245 75-76 167-73 246 7Zm35 167c0 177 115 295 285 295s284-118 284-295v-231c0-176-114-293-284-293s-285 117-285 293Zm116 0v-231c0-112 63-178 169-178s168 65 168 178v231c0 114-63 180-168 180-106 0-169-66-169-180Zm242-87c-125 125-127 291-7 410 121 120 285 118 410-7l163-164c126-125 128-288 7-408-120-120-283-119-409 6Zm82 82 164-163c79-79 171-82 245-6 75 75 73 164-7 244l-163 164c-80 80-171 82-246 8-74-76-72-166 7-247Zm234 111c-177 0-295 115-295 284 0 170 118 284 295 284h231c177 0 294-114 294-284 0-169-117-284-294-284Zm0 115h231c112 0 178 63 178 169 0 107-65 169-178 169h-231c-113 0-179-63-179-169s66-169 179-169Zm87 243c-125-125-290-127-410-7s-118 285 7 410l164 163c126 125 288 127 408 7 121-120 120-284-6-409Zm-82 82 163 164c79 79 82 170 6 245-74 75-164 73-244-7l-164-163c-79-81-81-171-8-246 76-75 167-73 247 7Zm-679 463c0 177 115 295 285 295s284-118 284-295v-231c0-176-114-293-284-293s-285 117-285 293Zm116 0v-231c0-112 63-178 169-178s168 65 168 178v231c0 114-63 180-168 180-106 0-169-66-169-180Zm-471-382c-125 125-127 290-7 410 121 120 284 117 409-8l163-163c126-125 128-289 7-409-119-120-283-118-409 7Zm82 82 163-164c80-79 171-81 246-6s73 165-7 245l-164 163c-79 80-171 83-245 8-75-75-72-166 7-246Z" style="fill: rgb(255, 255, 255);"/>
  </g>
</svg>